<svg id="Calque_1" data-name="Calque 1" xmlns="http://www.w3.org/2000/svg" viewBox="0 0 2743.46 800"><defs><style>.cls-1{fill:#fad5e5;}.cls-2{fill:#0a1a42;}</style></defs><title>ea-14-logo</title><polygon class="cls-1" points="0 800 2743.46 800 2743.46 376.96 2071.51 376.96 2071.51 0 0 0 0 800"/><path class="cls-2" d="M271.08,319.13v56.44H49.25V127.07H262.9v56.11H120.25v40.24h84.91v49.08H120.25v46.63Z"/><path class="cls-2" d="M526.65,319.13v56.44H312V127.07h71V319.13Z"/><path class="cls-2" d="M782.7,319.13v56.44H560.86V127.07H774.52v56.11H631.86v40.24h84.91v49.08H631.86v46.63Z"/><path class="cls-2" d="M798.59,251.24c0-82,58.57-127.61,146.58-127.61,75.91,0,129.57,33.37,143.47,94.4h-70.18c-10.8-27.32-37-39.43-73.29-39.43-48.1,0-78.36,21.76-78.36,72.64,0,51,30.27,72.8,78.36,72.8,41.88,0,70.18-16.2,77.22-53.17h68.71c-8.83,69.53-64.62,108-145.93,108C857.16,378.84,798.59,333,798.59,251.24Z"/><path class="cls-2" d="M1341.27,183.18h-82.45V375.57h-70.18V183.18h-82.45V127.07h235.09Z"/><path class="cls-2" d="M1375.32,127.07H1548.9c65.44,0,91.29,31.9,91.29,68.38,0,49.08-34.35,64.29-62.66,65.93,46,17.67,28.79,76.89,51.86,114.19h-73.62c-19.3-33.54-1.8-99.47-57.91-99.47h-51.53v99.47h-71ZM1537,226.37c26.34,0,35.83-7,35.83-23.89s-9.49-22.74-35.83-22.74h-90.63v46.63Z"/><path class="cls-2" d="M1654.94,251.24c0-82,58.57-127.61,146.58-127.61,88.67,0,147.07,45.64,147.07,127.61,0,81.8-58.41,127.61-147.07,127.61C1713.51,378.84,1654.94,333,1654.94,251.24Zm225.6,0c0-50.88-30.43-72.64-79-72.64-48.1,0-78.36,21.76-78.36,72.64,0,51,30.27,72.8,78.36,72.8C1850.11,324,1880.54,302.28,1880.54,251.24Z"/><path class="cls-2" d="M228.63,664.68H116.4l-17.26,46h-73L127,462.15h91.45l100.12,248.5H245.89Zm-20-53-34.44-91.45H170.8l-34.44,91.45Z"/><path class="cls-2" d="M566.73,654.21v56.44H352.09V462.15h71V654.21Z"/><path class="cls-2" d="M813.46,518.26H731V710.65H660.82V518.26H578.37V462.15H813.46Z"/><path class="cls-2" d="M1069.35,654.21v56.44H847.51V462.15h213.66v56.11H918.51v40.24h84.91v49.08H918.51v46.63Z"/><path class="cls-2" d="M1110.27,462.15h173.58c65.44,0,91.29,31.9,91.29,68.38,0,49.08-34.36,64.29-62.66,65.93,46,17.67,28.79,76.89,51.86,114.19h-73.62c-19.3-33.54-1.8-99.47-57.91-99.47h-51.53v99.47h-71Zm161.63,99.3c26.34,0,35.83-7,35.83-23.88s-9.49-22.74-35.83-22.74h-90.63v46.63Z"/><path class="cls-2" d="M1671.77,462.15v248.5h-94.4l-93.74-165.07V710.65h-70.18V462.15h94.89l93.25,163.76V462.15Z"/><path class="cls-2" d="M1907.78,664.68H1795.56l-17.26,46h-73l100.78-248.5h91.45l100.12,248.5H1925Zm-20-53-34.44-91.45H1850l-34.44,91.45Z"/><path class="cls-2" d="M2222,518.26h-82.45V710.65h-70.18V518.26h-82.45V462.15H2222Z"/><path class="cls-2" d="M2256.05,462.15h71v248.5h-71Z"/><path class="cls-2" d="M2357.33,462.15H2430l71.66,198.61h3.43l71.66-198.61h73L2548.9,710.65h-91.45Z"/></svg>