<svg version="1" xmlns="http://www.w3.org/2000/svg" width="1066.667" height="1066.667" viewBox="0 0 800.000000 800.000000"><path d="M161.7 151.7c-.4.3-.7 53.8-.7 118.7 0 99.6-.2 118.5-1.4 120.1-.8 1.1-37 30.3-80.5 65L0 518.5v55.4c0 52.7.1 55.3 1.8 53.9 1.7-1.4 145.6-116.1 153.8-122.6 2.3-1.7 4.5-3.2 4.8-3.2.3 0 .6 32.1.6 71.4 0 48.8.3 71.7 1 72.1 1.4.9-4.6 5.4 73.2-55.5 37.6-29.4 124.6-97.3 193.3-150.9 68.8-53.6 128.3-100.1 132.3-103.3 4-3.2 7.7-5.6 8.2-5.3.6.4 1 8.6 1 19.9 0 17-.2 19.6-1.8 21.4-1.6 1.9-51.3 40.8-246.2 192.7-51.4 40-95.7 74.6-98.5 76.7-2.7 2.2-5.4 4.6-5.8 5.4-.7 1.2 29.8 1.4 219 1.2l219.8-.3.3-246.9c.1-135.9-.1-247.3-.6-247.8-.7-.7-90.1 69.2-326.2 254.9l-81.5 64.1-.3-19.4c-.1-10.7.1-20.1.5-20.9.5-.7 78.9-62.8 174.3-138s174.5-137.7 175.8-138.8c1.2-1.1 2.2-2.4 2.2-2.9 0-1-438.4-1.1-439.3-.1zM386 210.4c-.8.8-32.1 25.8-69.5 55.6l-68 54.2-.3-54.3c-.1-29.9 0-55 .3-55.7.3-.9 15.2-1.2 69.7-1.2 59.1 0 69 .2 67.8 1.4zm183.8 325.8c.2 45.2 0 54.7-1.2 55.7-1 .8-20.8 1-73.6.9l-72.3-.3 71.6-54.8c39.4-30.1 71.9-55.2 72.2-55.8.4-.5 1.2-.8 1.8-.6.9.3 1.3 14.7 1.5 54.9z"/></svg>